<?xml version="1.0" standalone="no"?>
<!DOCTYPE svg PUBLIC "-//W3C//DTD SVG 20010904//EN"
 "http://www.w3.org/TR/2001/REC-SVG-20010904/DTD/svg10.dtd">
<svg version="1.0" xmlns="http://www.w3.org/2000/svg"
 width="512.000000pt" height="512.000000pt" viewBox="0 0 512.000000 512.000000"
 preserveAspectRatio="xMidYMid meet">

<g transform="translate(0.000000,512.000000) scale(0.100000,-0.100000)"
fill="#000000" stroke="none">
<path d="M2650 4778 c-48 -25 -90 -89 -90 -138 0 -14 10 -46 23 -70 30 -61 87
-90 177 -90 283 0 625 -101 880 -259 316 -197 571 -495 705 -828 83 -205 119
-363 133 -589 6 -101 13 -138 28 -165 21 -37 92 -79 134 -79 49 0 113 42 138
90 22 42 23 52 17 168 -23 455 -192 889 -475 1227 -385 457 -910 720 -1502
750 -116 6 -126 5 -168 -17z"/>
<path d="M998 4305 c-102 -26 -177 -71 -263 -159 -194 -198 -325 -448 -386
-736 -29 -137 -32 -389 -5 -523 57 -292 167 -485 551 -967 405 -508 833 -915
1353 -1287 321 -230 541 -307 872 -307 238 1 408 40 626 144 198 95 404 258
486 384 108 167 108 387 0 552 -23 34 -147 165 -298 314 -201 198 -273 263
-320 287 -157 83 -331 84 -483 3 -31 -17 -117 -85 -191 -151 -139 -125 -163
-142 -217 -154 -50 -10 -96 10 -233 100 -309 204 -494 388 -698 693 -80 120
-96 151 -100 191 -6 69 10 96 153 254 91 101 134 158 161 212 70 142 70 294
-2 443 -33 68 -57 95 -310 344 -150 149 -291 282 -311 297 -98 66 -269 96
-385 66z m183 -318 c42 -19 517 -488 539 -532 24 -48 25 -119 2 -161 -9 -18
-69 -89 -132 -159 -136 -151 -163 -189 -192 -275 -29 -85 -31 -220 -4 -300 22
-65 88 -178 182 -310 223 -316 447 -526 800 -750 131 -84 204 -110 314 -110
166 0 249 40 438 210 73 66 146 127 162 135 38 20 123 19 163 -1 50 -25 506
-482 528 -529 41 -89 16 -160 -94 -260 -138 -127 -311 -220 -504 -272 -88 -24
-116 -27 -268 -27 -188 1 -250 12 -401 75 -242 101 -835 579 -1199 967 -280
300 -626 738 -740 938 -229 402 -161 915 170 1282 26 29 64 61 84 72 41 22
113 25 152 7z"/>
<path d="M2650 4138 c-48 -25 -90 -89 -90 -138 0 -42 42 -113 79 -134 25 -14
64 -22 146 -28 284 -20 530 -131 726 -327 196 -196 307 -442 327 -726 6 -82
14 -121 28 -146 21 -37 92 -79 134 -79 49 0 113 42 138 90 22 42 23 53 17 148
-44 737 -620 1313 -1357 1357 -95 6 -106 5 -148 -17z"/>
<path d="M2650 3498 c-48 -25 -90 -89 -90 -138 1 -71 65 -144 135 -154 210
-29 260 -50 361 -150 94 -95 144 -205 144 -324 1 -119 109 -198 215 -157 87
33 115 100 98 234 -23 182 -93 329 -221 463 -122 127 -279 210 -452 237 -98
16 -141 13 -190 -11z"/>
</g>
</svg>
