<?xml version="1.0" standalone="no"?>
<!DOCTYPE svg PUBLIC "-//W3C//DTD SVG 20010904//EN"
 "http://www.w3.org/TR/2001/REC-SVG-20010904/DTD/svg10.dtd">
<svg version="1.0" xmlns="http://www.w3.org/2000/svg"
 width="512.000000pt" height="512.000000pt" viewBox="0 0 512.000000 512.000000"
 preserveAspectRatio="xMidYMid meet">

<g transform="translate(0.000000,512.000000) scale(0.100000,-0.100000)"
fill="#000000" stroke="none">
<path d="M1500 4669 c-65 -26 -100 -85 -100 -169 l0 -60 -310 0 c-349 0 -414
-8 -535 -64 -150 -70 -252 -172 -325 -321 -74 -152 -70 -65 -70 -1689 0 -1222
2 -1466 14 -1529 47 -244 220 -439 461 -519 l70 -23 1860 0 1860 0 73 27 c109
39 178 84 263 169 61 61 86 95 123 170 81 164 77 61 73 1739 -3 1652 3 1516
-71 1665 -71 141 -176 243 -321 311 -121 56 -186 64 -535 64 l-310 0 0 64 c0
49 -5 70 -22 96 -52 76 -125 98 -202 61 -59 -29 -85 -72 -93 -155 l-6 -66
-837 0 -837 0 -6 66 c-8 82 -34 126 -91 153 -46 23 -86 26 -126 10z m-100
-613 c0 -49 5 -70 23 -96 51 -76 124 -98 201 -61 59 29 85 72 93 155 l6 66
837 0 837 0 6 -66 c8 -83 34 -126 93 -155 77 -37 150 -15 202 61 17 26 22 47
22 97 l0 64 328 -3 327 -3 56 -26 c79 -37 133 -90 171 -167 l33 -66 3 -233 3
-233 -2081 0 -2081 0 3 233 c3 226 4 234 29 287 45 97 112 157 212 191 46 16
90 18 365 19 l312 0 0 -64z m3238 -2089 l-3 -1102 -33 -67 c-38 -77 -92 -130
-171 -167 l-56 -26 -1815 0 -1815 0 -55 26 c-82 39 -135 90 -172 167 l-33 67
-3 1102 -2 1103 2080 0 2080 0 -2 -1103z"/>
</g>
</svg>
