<?xml version="1.0" standalone="no"?>
<!DOCTYPE svg PUBLIC "-//W3C//DTD SVG 20010904//EN"
 "http://www.w3.org/TR/2001/REC-SVG-20010904/DTD/svg10.dtd">
<svg version="1.0" xmlns="http://www.w3.org/2000/svg"
 width="512.000000pt" height="512.000000pt" viewBox="0 0 512.000000 512.000000"
 preserveAspectRatio="xMidYMid meet">

<g transform="translate(0.000000,512.000000) scale(0.100000,-0.100000)"
fill="#000000" stroke="none">
<path d="M3575 5108 c-148 -16 -338 -74 -474 -142 -26 -14 -90 -53 -142 -87
-79 -52 -168 -136 -556 -523 -338 -336 -469 -472 -485 -505 -32 -68 -30 -169
5 -237 68 -133 229 -190 363 -128 25 11 196 173 489 464 492 488 517 509 688
569 396 139 828 -39 1017 -417 61 -122 82 -213 83 -362 0 -135 -14 -214 -60
-325 -56 -134 -100 -185 -553 -640 -298 -299 -445 -454 -460 -484 -67 -135
-12 -298 124 -368 41 -21 65 -27 121 -27 118 0 119 1 616 501 245 246 466 475
491 508 400 531 360 1285 -95 1770 -304 326 -731 483 -1172 433z"/>
<path d="M3254 3602 c-28 -10 -73 -37 -100 -59 -27 -23 -399 -392 -826 -820
-828 -829 -812 -811 -825 -921 -19 -165 134 -318 299 -299 111 14 89 -6 955
860 866 866 846 844 860 955 18 155 -118 303 -276 302 -20 -1 -59 -9 -87 -18z"/>
<path d="M1325 3221 c-16 -5 -43 -14 -60 -20 -38 -15 -886 -859 -970 -966
-390 -496 -390 -1200 0 -1700 288 -369 752 -571 1212 -526 265 26 506 117 708
269 33 25 262 246 508 491 500 497 501 498 501 616 0 56 -6 80 -27 121 -70
136 -233 191 -368 124 -30 -15 -185 -162 -484 -460 -460 -458 -503 -495 -645
-553 -130 -54 -281 -75 -410 -57 -348 47 -622 285 -712 619 -27 100 -29 295
-5 394 22 88 67 193 113 265 22 33 220 241 480 502 299 302 449 459 464 489
67 133 12 299 -120 366 -53 27 -138 39 -185 26z"/>
</g>
</svg>
