<?xml version="1.0" standalone="no"?>
<!DOCTYPE svg PUBLIC "-//W3C//DTD SVG 20010904//EN"
 "http://www.w3.org/TR/2001/REC-SVG-20010904/DTD/svg10.dtd">
<svg version="1.0" xmlns="http://www.w3.org/2000/svg"
 width="512.000000pt" height="512.000000pt" viewBox="0 0 512.000000 512.000000"
 preserveAspectRatio="xMidYMid meet">

<g transform="translate(0.000000,512.000000) scale(0.100000,-0.100000)"
fill="#000000" stroke="none">
<path d="M361 4349 c-172 -34 -318 -182 -351 -358 -14 -74 -14 -2788 0 -2862
34 -180 179 -325 359 -359 74 -14 4308 -14 4382 0 180 34 325 179 359 359 14
74 14 2788 0 2862 -25 129 -118 257 -228 313 -118 60 30 56 -2322 55 -1185 -1
-2175 -5 -2199 -10z m3359 -1172 c-929 -926 -924 -921 -1044 -953 -114 -31
-258 -8 -359 56 -27 17 -443 424 -925 905 l-877 874 2045 0 2045 0 -885 -882z
m-2773 -1264 l-647 -648 0 1295 0 1295 647 -648 648 -647 -648 -647z m3873
645 l0 -1293 -647 647 -648 648 645 645 c355 355 646 645 647 645 2 0 3 -582
3 -1292z m-2870 -351 c76 -74 164 -151 196 -172 248 -165 580 -165 830 1 32
21 120 99 195 172 75 72 140 132 145 132 5 0 297 -288 649 -640 l640 -640
-2045 0 -2045 0 640 640 c352 352 644 640 649 640 5 0 70 -60 146 -133z"/>
</g>
</svg>
