<?xml version="1.0" standalone="no"?>
<!DOCTYPE svg PUBLIC "-//W3C//DTD SVG 20010904//EN"
 "http://www.w3.org/TR/2001/REC-SVG-20010904/DTD/svg10.dtd">
<svg version="1.0" xmlns="http://www.w3.org/2000/svg"
 width="512.000000pt" height="512.000000pt" viewBox="0 0 512.000000 512.000000"
 preserveAspectRatio="xMidYMid meet">

<g transform="translate(0.000000,512.000000) scale(0.100000,-0.100000)"
fill="#000000" stroke="none">
<path d="M3390 5109 c-514 -58 -960 -356 -1207 -807 -174 -316 -232 -727 -153
-1082 l19 -85 -1004 -1005 c-552 -553 -1010 -1018 -1018 -1035 -12 -25 -16
-113 -22 -486 -7 -441 -7 -457 12 -500 24 -52 45 -72 97 -94 34 -14 89 -15
475 -10 240 3 451 8 469 11 44 7 109 67 122 112 5 21 10 128 10 240 l0 202
204 0 c218 0 252 6 299 49 55 50 57 62 57 301 l0 220 220 0 c242 0 255 3 303
60 40 47 47 90 47 303 l0 197 204 0 c123 0 216 4 237 11 23 8 90 67 200 177
l167 165 68 -16 c311 -73 619 -56 899 50 705 266 1142 1048 994 1778 -110 544
-518 1001 -1046 1174 -211 69 -442 94 -653 70z m367 -345 c246 -43 487 -176
672 -370 175 -183 292 -403 335 -634 21 -107 21 -313 0 -420 -69 -367 -327
-711 -659 -877 -275 -139 -645 -168 -920 -73 -65 22 -135 26 -168 9 -12 -6
-101 -90 -198 -185 l-175 -174 -268 0 c-300 0 -314 -3 -364 -68 l-27 -35 -3
-229 -3 -228 -212 0 c-184 0 -217 -3 -252 -19 -93 -42 -104 -80 -105 -343 l0
-208 -213 0 c-201 0 -215 -1 -257 -22 -30 -15 -53 -37 -67 -63 -22 -38 -23
-51 -23 -256 l0 -216 -127 -6 c-71 -4 -186 -7 -257 -7 l-129 0 6 307 6 307
1025 1025 c936 938 1025 1029 1032 1066 7 40 2 72 -35 209 -109 407 18 869
320 1166 123 120 308 238 464 294 198 71 391 87 602 50z"/>
<path d="M3835 4280 c-75 -30 -148 -99 -187 -178 -29 -58 -33 -76 -32 -142 1
-161 109 -294 273 -336 145 -37 294 35 372 178 31 58 34 70 34 148 0 71 -4 94
-27 142 -32 70 -99 138 -170 174 -72 37 -189 44 -263 14z"/>
</g>
</svg>
