<?xml version="1.0" standalone="no"?>
<!DOCTYPE svg PUBLIC "-//W3C//DTD SVG 20010904//EN"
 "http://www.w3.org/TR/2001/REC-SVG-20010904/DTD/svg10.dtd">
<svg version="1.0" xmlns="http://www.w3.org/2000/svg"
 width="512.000000pt" height="512.000000pt" viewBox="0 0 512.000000 512.000000"
 preserveAspectRatio="xMidYMid meet">

<g transform="translate(0.000000,512.000000) scale(0.100000,-0.100000)"
fill="#000000" stroke="none">
<path d="M1093 4376 c-172 -42 -314 -170 -383 -346 l-25 -65 0 -1405 0 -1405
25 -65 c71 -180 222 -313 398 -349 36 -8 368 -11 1060 -11 853 0 1017 3 1070
15 189 45 347 200 397 392 23 86 23 2760 0 2846 -49 190 -209 348 -396 392
-55 13 -207 15 -1079 14 -783 -1 -1027 -4 -1067 -13z m2095 -261 c69 -21 129
-69 166 -135 l31 -55 0 -1365 0 -1365 -31 -55 c-17 -30 -50 -70 -73 -87 -85
-66 -43 -64 -1137 -61 -983 3 -989 3 -1035 24 -57 27 -115 85 -143 144 -21 45
-21 45 -24 1370 -2 912 1 1341 8 1377 20 97 95 178 192 208 35 11 229 14 1019
14 846 1 982 -1 1027 -14z"/>
<path d="M2109 3663 c-47 -29 -63 -70 -67 -168 l-4 -90 -59 -19 c-87 -27 -188
-102 -237 -175 -60 -90 -77 -149 -77 -261 0 -86 3 -101 32 -163 37 -78 120
-170 204 -228 31 -21 131 -74 223 -119 138 -67 177 -91 225 -138 72 -71 90
-123 71 -202 -25 -105 -122 -158 -270 -147 -41 3 -97 13 -125 23 -44 15 -74
32 -184 106 -32 22 -92 23 -132 2 -45 -23 -73 -91 -59 -143 20 -77 177 -185
328 -227 l60 -17 4 -81 c6 -122 49 -176 140 -176 83 0 128 65 128 182 l0 75
62 19 c194 58 318 228 318 437 0 124 -57 244 -164 345 -72 69 -134 107 -319
196 -235 113 -307 193 -277 306 16 60 80 122 146 140 106 31 208 12 324 -60
114 -70 199 -48 230 61 13 45 -6 94 -53 135 -47 41 -183 110 -234 120 l-33 6
0 85 c0 99 -17 146 -64 174 -38 23 -102 24 -137 2z"/>
<path d="M3981 3412 c-61 -33 -87 -112 -57 -170 32 -61 46 -67 196 -72 117 -4
141 -8 159 -24 21 -19 21 -20 21 -873 0 -840 0 -853 -20 -873 -18 -18 -33 -20
-140 -20 -100 0 -127 -3 -159 -20 -86 -43 -94 -157 -15 -219 24 -19 40 -21
180 -21 130 0 162 3 208 20 76 29 139 88 178 168 l33 67 0 890 c0 865 -1 892
-20 944 -27 73 -101 153 -173 188 -53 25 -68 27 -207 31 -132 3 -154 1 -184
-16z"/>
</g>
</svg>
