<?xml version="1.0" standalone="no"?>
<!DOCTYPE svg PUBLIC "-//W3C//DTD SVG 20010904//EN"
 "http://www.w3.org/TR/2001/REC-SVG-20010904/DTD/svg10.dtd">
<svg version="1.0" xmlns="http://www.w3.org/2000/svg"
 width="512.000000pt" height="512.000000pt" viewBox="0 0 512.000000 512.000000"
 preserveAspectRatio="xMidYMid meet">

<g transform="translate(0.000000,512.000000) scale(0.100000,-0.100000)"
fill="#000000" stroke="none">
<path d="M2340 5113 c-600 -41 -1082 -181 -1409 -406 -251 -174 -442 -488
-540 -888 -66 -271 -91 -543 -91 -994 0 -426 21 -645 85 -902 146 -582 473
-958 977 -1123 l67 -22 3 -312 c3 -291 4 -314 24 -356 43 -93 129 -130 222
-95 62 24 187 150 404 410 l168 200 112 -8 c156 -12 624 -1 788 18 435 49 837
157 1054 281 369 212 603 559 700 1039 68 333 101 993 67 1345 -59 617 -216
1028 -496 1299 -108 105 -192 162 -348 236 -306 147 -709 240 -1182 275 -127
9 -493 11 -605 3z m770 -377 c390 -49 745 -151 952 -274 305 -181 473 -520
545 -1103 22 -179 25 -707 5 -929 -46 -509 -157 -798 -393 -1026 -164 -157
-307 -227 -634 -308 -324 -81 -543 -107 -945 -112 l-315 -4 -198 -243 c-292
-357 -456 -546 -488 -562 -15 -8 -35 -12 -43 -9 -36 14 -39 65 -33 510 l5 432
-76 27 c-183 64 -346 168 -467 296 -185 197 -293 449 -352 824 -21 136 -29
726 -13 953 42 610 220 1012 540 1224 264 174 598 272 1105 322 106 10 677 -3
805 -18z"/>
<path d="M2567 4186 c-9 -10 -17 -30 -17 -45 0 -53 15 -60 148 -71 218 -19
393 -76 550 -180 328 -215 494 -538 528 -1023 6 -97 18 -117 64 -117 51 0 64
34 56 148 -17 238 -64 427 -151 607 -197 410 -590 667 -1055 692 -91 5 -108 3
-123 -11z"/>
<path d="M1675 4031 c-58 -26 -155 -102 -218 -171 -103 -111 -149 -251 -114
-345 35 -95 153 -362 222 -500 307 -624 730 -1037 1415 -1381 204 -103 320
-146 392 -146 120 0 257 98 367 262 78 117 93 191 53 266 -31 57 -269 249
-433 349 -70 42 -91 50 -144 53 -87 6 -126 -16 -204 -117 -95 -124 -134 -137
-264 -91 -279 98 -513 317 -657 614 -111 228 -107 278 29 391 137 115 154 191
77 339 -87 165 -298 451 -355 481 -40 20 -117 19 -166 -4z"/>
<path d="M2689 3856 c-31 -15 -39 -75 -12 -97 10 -9 56 -21 102 -28 315 -46
541 -224 626 -493 24 -77 45 -207 45 -285 0 -66 57 -96 101 -52 20 20 21 29
16 123 -15 240 -102 443 -254 593 -138 136 -319 215 -564 247 -20 2 -47 -1
-60 -8z"/>
<path d="M2769 3499 c-16 -16 -20 -28 -15 -52 9 -43 14 -46 87 -58 78 -12 111
-24 166 -61 55 -37 99 -126 113 -228 8 -56 16 -79 31 -92 28 -24 54 -23 80 3
18 18 20 28 14 82 -8 76 -30 158 -57 211 -52 101 -167 182 -292 205 -84 15
-103 14 -127 -10z"/>
</g>
</svg>
